<?xml version="1.0" standalone="no"?>
<!DOCTYPE svg PUBLIC "-//W3C//DTD SVG 20010904//EN"
 "http://www.w3.org/TR/2001/REC-SVG-20010904/DTD/svg10.dtd">
<svg version="1.0" xmlns="http://www.w3.org/2000/svg"
 width="254.000000pt" height="262.000000pt" viewBox="0 0 254.000000 262.000000"
 preserveAspectRatio="xMidYMid meet">
<metadata>
Created by potrace 1.10, written by Peter Selinger 2001-2011
</metadata>
<g transform="translate(0.000000,262.000000) scale(0.100000,-0.100000)"
fill="#000000" stroke="none">
<path d="M1235 2578 c-42 -15 -91 -53 -111 -87 -15 -26 -21 -28 -60 -23 -58 6
-87 -3 -128 -38 -80 -71 -62 -201 35 -251 21 -10 47 -19 59 -19 22 0 23 -5 23
-104 l-1 -58 52 6 c137 15 210 17 307 7 59 -6 113 -12 119 -13 10 -2 13 19 14
82 1 66 4 84 15 82 26 -6 78 19 111 53 64 66 49 179 -31 233 -28 19 -44 23
-91 20 -52 -3 -58 -1 -79 27 -62 80 -151 112 -234 83z m160 -66 c23 -16 49
-46 60 -70 19 -40 21 -42 40 -28 11 9 40 16 64 16 36 0 49 -6 77 -34 56 -56
44 -140 -26 -177 -19 -11 -49 -19 -67 -19 l-33 0 0 -80 0 -80 -57 7 c-73 10
-207 10 -295 1 l-68 -7 0 79 0 80 -44 0 c-37 0 -51 6 -80 34 -32 29 -36 39
-36 82 0 52 18 83 57 103 30 16 86 14 109 -4 27 -20 28 -19 42 18 14 40 66 91
107 105 44 16 104 6 150 -26z"/>
<path d="M717 2204 c-86 -49 -96 -57 -87 -74 16 -30 25 -31 57 -7 23 17 115
68 151 83 6 3 -10 54 -17 54 -3 -1 -50 -26 -104 -56z"/>
<path d="M1765 2229 c-8 -24 -11 -21 45 -49 129 -65 273 -191 376 -327 48 -64
129 -220 147 -283 13 -45 30 -58 56 -41 12 8 10 19 -9 68 -84 211 -207 386
-356 504 -72 57 -220 149 -240 149 -7 0 -16 -9 -19 -21z"/>
<path d="M447 2114 c-4 -4 -7 -27 -7 -51 0 -40 -2 -43 -27 -43 -39 -1 -59 -19
-84 -76 -58 -133 -84 -244 -60 -258 23 -15 230 172 245 221 4 12 2 31 -3 42
-17 31 -13 39 23 51 46 15 61 33 41 50 -12 10 -18 10 -30 0 -19 -16 -19 -1 0
24 21 28 19 46 -5 46 -23 0 -50 -47 -34 -58 24 -18 1 -64 -25 -48 -3 2 -5 -23
-3 -57 3 -54 0 -63 -22 -84 -14 -13 -32 -23 -41 -23 -18 0 -20 -17 -3 -22 8
-3 3 -10 -12 -18 -14 -7 -35 -24 -47 -37 -12 -12 -29 -23 -38 -23 -9 0 -13 -4
-10 -10 3 -5 1 -10 -6 -10 -7 0 -9 9 -5 23 3 12 6 28 6 36 0 7 6 11 15 8 22
-9 28 10 8 22 -14 9 -15 12 -5 19 8 5 13 12 13 16 -4 29 0 37 19 31 15 -5 18
-3 14 9 -3 9 -11 16 -18 16 -7 0 -6 4 2 9 8 4 13 11 13 15 -3 23 1 27 22 20
12 -4 25 -12 29 -18 4 -6 10 -7 14 -3 4 4 -6 18 -22 32 -23 20 -25 25 -11 25
25 0 89 45 79 56 -4 4 0 3 9 -4 13 -9 16 -9 16 3 0 8 -4 15 -9 15 -5 0 -7 12
-6 27 3 27 -19 43 -35 27z"/>
<path d="M1048 1918 c-22 -7 -28 -16 -28 -39 0 -32 -1 -32 91 -29 78 2 115
-14 154 -64 61 -79 35 -208 -53 -266 -25 -16 -56 -30 -68 -30 -22 0 -54 -23
-54 -40 0 -21 32 -40 58 -34 133 29 220 133 221 264 1 62 -25 129 -67 174 -59
63 -177 93 -254 64z"/>
<path d="M2015 1872 c-29 -15 -158 -109 -221 -161 -77 -64 -68 -61 -151 -55
-70 5 -83 3 -123 -19 -61 -33 -90 -77 -90 -138 0 -70 37 -110 108 -117 94 -9
168 55 194 167 10 47 16 55 57 78 119 68 268 158 284 171 25 22 22 66 -6 79
-17 8 -30 7 -52 -5z m20 -43 c-4 -5 0 -9 7 -9 7 0 0 -7 -16 -15 -15 -8 -32
-13 -36 -10 -5 3 -15 -3 -22 -13 -19 -27 -110 -79 -102 -58 5 14 18 20 27 14
7 -5 37 24 33 31 -2 3 14 17 35 31 21 13 39 27 39 30 0 3 9 6 20 7 11 1 18 -2
15 -8z m-390 -205 c11 -3 28 -19 38 -36 41 -72 -38 -178 -134 -178 -37 0 -79
26 -79 49 0 9 -5 22 -11 28 -24 24 27 114 75 133 24 10 82 12 111 4z"/>
<path d="M895 1820 c-4 -6 -15 -8 -26 -5 -24 8 -26 -21 -4 -52 16 -22 16 -22
35 -3 11 11 20 31 20 45 0 25 -14 33 -25 15z"/>
<path d="M927 1772 c-10 -10 -17 -26 -17 -35 0 -23 -5 -21 -44 8 -40 30 -50
31 -43 5 3 -11 1 -23 -4 -26 -18 -11 -8 -22 34 -36 31 -9 43 -19 45 -35 5 -34
22 -28 22 7 0 24 7 35 30 48 32 18 36 27 20 37 -5 3 -10 15 -10 26 0 24 -12
24 -33 1z"/>
<path d="M1122 1733 c-13 -5 -42 -55 -42 -71 0 -20 41 -61 55 -55 17 6 21 43
5 43 -16 0 -11 40 5 47 9 3 24 -2 35 -12 18 -17 50 -15 50 3 0 4 -9 18 -20 30
-20 21 -58 27 -88 15z"/>
<path d="M204 1602 c-3 -9 -10 -27 -15 -40 -14 -36 -11 -42 20 -42 22 0 30 6
35 24 3 13 8 31 11 38 4 9 -4 19 -20 26 -22 10 -26 9 -31 -6z"/>
<path d="M969 1604 c-31 -20 -67 -70 -79 -114 -17 -58 15 -141 67 -175 23 -15
26 -15 44 1 25 23 24 27 -11 66 -22 24 -30 42 -30 71 0 33 7 46 45 83 39 38
44 47 35 64 -13 24 -36 25 -71 4z"/>
<path d="M187 1439 c-11 -6 -25 -25 -32 -42 l-13 -30 -12 24 c-15 28 -31 40
-43 32 -5 -3 1 -15 12 -27 11 -11 23 -33 26 -48 5 -18 14 -28 25 -28 10 0 21
-6 23 -12 4 -10 8 -10 15 1 8 11 14 11 38 -1 39 -18 50 -86 22 -134 -16 -28
-24 -32 -80 -38 -59 -6 -63 -5 -87 23 -31 34 -35 45 -35 89 1 34 28 65 51 57
18 -6 28 16 12 26 -17 10 -48 2 -71 -19 -43 -37 -26 -149 29 -192 22 -17 36
-19 102 -15 61 4 79 9 93 26 24 29 41 96 34 138 -10 63 -48 83 -130 69 -10 -2
-21 3 -23 10 -3 7 5 12 20 12 28 0 67 41 67 71 0 21 -16 24 -43 8z"/>
<path d="M2358 1421 c-30 -27 -33 -34 -36 -102 -3 -58 1 -87 18 -134 29 -80
34 -113 22 -128 -5 -6 -11 -50 -13 -97 -4 -85 -4 -85 21 -85 23 0 26 5 31 55
3 30 9 69 13 87 4 19 3 34 -3 38 -12 7 8 51 45 100 39 51 64 123 64 182 0 47
-4 59 -29 84 -40 40 -89 40 -133 0z m29 -23 c-6 -18 -12 -83 -12 -145 0 -62
-3 -109 -8 -104 -4 4 -14 40 -22 79 -17 79 -8 151 22 184 25 28 33 21 20 -14z
m59 7 c10 -41 -27 -248 -49 -270 -14 -15 -3 245 12 273 15 29 29 28 37 -3z
m44 -4 c18 -35 12 -122 -14 -176 -26 -54 -62 -105 -52 -72 23 73 38 151 39
204 2 65 9 77 27 44z"/>
<path d="M719 1403 l0 -28 -16 23 c-18 25 -59 31 -49 7 3 -9 0 -15 -9 -15 -29
0 -15 -28 18 -36 30 -6 31 -7 10 -15 -26 -9 -31 -39 -8 -39 8 0 15 -4 15 -10
0 -16 20 -12 51 11 29 20 31 20 50 4 16 -16 19 -16 19 -3 0 9 -7 19 -16 22
-12 5 -14 15 -8 52 6 44 6 46 -15 39 -12 -4 -21 -2 -21 4 0 25 -20 9 -21 -16z"/>
<path d="M1272 1394 c-31 -22 -13 -46 29 -37 40 8 52 -22 19 -47 -21 -15 -22
-20 -11 -34 17 -21 23 -20 49 4 30 28 29 74 -3 105 -28 29 -51 31 -83 9z"/>
<path d="M1790 1370 c0 -32 -14 -40 -24 -15 -8 22 -19 18 -34 -13 -12 -25 -10
-29 18 -52 17 -14 30 -35 30 -47 0 -13 5 -23 10 -23 6 0 10 9 10 20 0 14 10
22 38 30 34 9 39 14 40 40 1 32 -15 39 -37 18 -14 -14 -13 -8 8 35 16 31 9 46
-13 28 -10 -8 -16 -9 -21 -1 -12 20 -25 10 -25 -20z"/>
<path d="M1111 1334 c-12 -15 -21 -34 -21 -44 0 -33 39 -70 74 -70 39 0 77 33
58 52 -9 9 -18 8 -38 -2 -23 -13 -27 -13 -40 5 -13 18 -13 22 7 37 23 19 20
48 -5 48 -8 0 -24 -12 -35 -26z"/>
<path d="M1475 1315 c-55 -19 -99 -69 -85 -95 14 -27 36 -25 72 5 46 39 101
35 144 -10 35 -37 68 -45 78 -19 9 25 8 30 -20 64 -48 57 -122 79 -189 55z"/>
<path d="M852 1280 c-26 -24 -29 -60 -6 -60 9 0 24 10 34 22 15 20 20 21 34 8
11 -8 15 -22 12 -36 -8 -30 19 -39 38 -12 11 15 12 27 5 46 -20 53 -78 68
-117 32z"/>
<path d="M597 1133 c-4 -3 -7 -24 -7 -45 l0 -38 -65 0 c-53 0 -66 -3 -75 -19
-30 -57 2 -91 87 -91 l61 0 6 -62 c18 -173 38 -319 51 -371 27 -106 103 -188
205 -222 41 -14 103 -15 456 -13 391 3 411 4 455 24 65 30 114 78 144 138 27
56 36 98 60 295 8 69 18 145 21 169 l5 42 64 0 c55 0 66 3 79 22 37 53 6 88
-77 88 l-56 0 -3 43 -3 42 -701 3 c-385 1 -704 -1 -707 -5z m797 -26 l580 -2
8 -33 c7 -25 18 -37 43 -48 19 -8 40 -13 47 -12 7 2 13 -6 13 -17 0 -15 -9
-21 -35 -25 -76 -13 -86 -30 -94 -156 -2 -21 -6 -46 -9 -54 -3 -8 -8 -40 -11
-70 -7 -72 -14 -127 -23 -170 -3 -19 -5 -39 -4 -43 1 -5 -3 -6 -9 -2 -5 3 -10
-2 -10 -12 0 -10 -12 -32 -27 -48 -16 -16 -27 -33 -26 -37 2 -5 -2 -8 -8 -8
-6 0 -25 -11 -42 -24 -61 -45 -77 -46 -501 -42 -317 2 -407 6 -428 17 -16 8
-28 17 -28 22 0 4 -8 7 -17 7 -23 1 -53 23 -53 40 0 7 -3 10 -7 7 -7 -8 -36
31 -40 52 -1 8 -6 17 -11 20 -7 5 -32 65 -32 78 0 2 6 1 13 -3 9 -6 9 -5 0 7
-6 8 -14 43 -18 79 -4 36 -9 81 -12 100 -3 19 -7 66 -8 104 -2 60 -6 73 -29
96 -14 15 -26 32 -26 38 0 6 -18 10 -45 8 -46 -3 -73 13 -60 34 10 16 72 12
89 -6 15 -14 16 -14 16 3 0 30 23 73 40 74 12 0 12 2 1 6 -30 12 42 28 112 25
40 -1 333 -4 651 -5z"/>
<path d="M966 854 c-19 -50 6 -94 43 -74 21 11 27 43 15 74 -8 21 -50 21 -58
0z"/>
<path d="M1542 858 c-30 -30 10 -106 42 -79 19 16 25 42 15 69 -9 24 -38 29
-57 10z"/>
<path d="M1147 753 c-14 -13 -6 -34 21 -61 55 -56 135 -68 202 -31 39 22 75
72 65 89 -10 17 -34 11 -45 -11 -15 -28 -69 -59 -103 -59 -40 0 -86 27 -97 55
-9 24 -29 32 -43 18z"/>
<path d="M168 1025 c-18 -18 94 -355 118 -355 3 0 14 5 24 10 18 10 17 14 -15
83 -19 39 -44 116 -57 169 -20 85 -26 98 -44 98 -11 0 -23 -2 -26 -5z"/>
<path d="M2301 780 c-14 -32 -3 -60 23 -60 12 0 47 76 38 84 -16 17 -48 4 -61
-24z"/>
<path d="M2146 703 c9 -71 -54 -148 -74 -93 -8 22 -9 22 -28 -6 -14 -21 -19
-46 -19 -91 0 -57 3 -65 34 -97 87 -90 223 -65 267 49 15 42 16 51 3 92 -16
52 -34 65 -42 32 -7 -27 -27 -15 -27 17 0 38 -26 81 -67 109 -21 14 -41 25
-44 25 -4 0 -5 -17 -3 -37z m87 -87 c18 -35 38 -61 53 -66 14 -6 24 -18 24
-30 0 -22 -16 -27 -23 -7 -2 6 -5 1 -5 -13 -2 -52 -6 -62 -34 -81 -18 -13 -45
-21 -74 -22 -38 0 -51 5 -76 30 -26 26 -30 38 -32 91 -1 44 1 58 9 52 8 -6 19
-5 30 4 17 12 21 12 33 -3 11 -13 13 -13 9 -1 -3 9 1 24 9 35 8 10 14 14 14 9
0 -6 -5 -15 -12 -22 -9 -9 -9 -12 -1 -12 11 0 25 29 22 46 -5 27 3 55 13 52 6
-2 25 -30 41 -62z"/>
<path d="M385 637 c-12 -19 -15 -35 -10 -58 7 -32 7 -32 -16 -15 -26 18 -49
21 -49 7 0 -5 18 -16 40 -25 46 -18 51 -31 15 -40 -53 -13 -57 -91 -7 -141 51
-52 114 -60 152 -20 13 14 29 25 35 25 42 0 58 84 29 143 -27 54 -44 67 -85
67 -30 0 -42 -6 -55 -25 -9 -14 -23 -25 -30 -25 -20 0 -17 14 6 35 23 21 26
53 6 80 -13 18 -14 17 -31 -8z m143 -99 c16 -20 33 -94 26 -112 -4 -9 -26 -30
-51 -47 -39 -27 -47 -29 -75 -20 -67 23 -87 73 -52 127 18 27 63 57 48 32 -4
-7 2 -4 14 6 12 11 22 15 22 11 0 -5 5 -4 12 3 16 16 43 15 56 0z"/>
<path d="M1949 316 c-106 -80 -286 -159 -431 -191 -22 -4 -28 -11 -28 -30 0
-30 -4 -30 93 -5 143 36 273 96 399 185 62 43 68 54 40 71 -15 10 -27 4 -73
-30z"/>
<path d="M602 318 c-19 -19 -15 -25 46 -66 113 -77 321 -164 412 -174 31 -3
35 0 35 21 0 21 -8 26 -70 41 -124 31 -253 89 -348 156 -52 38 -58 39 -75 22z"/>
<path d="M1187 192 c-26 -29 -21 -61 13 -80 23 -13 30 -24 30 -48 0 -35 16
-54 45 -54 25 0 55 29 55 53 0 12 9 17 28 17 35 0 52 16 52 50 0 14 -5 31 -12
38 -17 17 -63 15 -78 -3 -14 -17 -40 -20 -40 -5 0 17 -39 50 -58 50 -11 0 -26
-8 -35 -18z m67 -48 c2 -10 9 -20 16 -22 9 -3 10 0 4 9 -6 12 -5 12 8 1 12
-10 22 -9 51 3 47 19 50 19 37 -5 -6 -11 -15 -20 -20 -20 -6 0 -24 -14 -42
-30 -33 -32 -48 -27 -48 13 0 11 -4 15 -12 11 -7 -4 -8 -3 -4 4 4 7 4 12 -1
12 -4 0 -14 4 -21 9 -12 7 -12 12 -1 29 14 23 29 17 33 -14z"/>
</g>
</svg>
